<svg width="223" height="72" viewBox="0 0 223 72" fill="none" xmlns="http://www.w3.org/2000/svg">
<g id="Group 27">
<g id="Group 26">
<rect id="Rectangle 13" x="3" y="3" width="217" height="66" rx="5" fill="black" fill-opacity="0.88"/>
<g id="Group 24">
<line id="Line 22" x1="3" y1="36" x2="3" y2="4" stroke="#3F3F3F" stroke-width="6"/>
<line id="Line 23" x1="28" y1="3" x2="-1.45568e-08" y2="3" stroke="#3F3F3F" stroke-width="6"/>
<line id="Line 24" x1="2.5" y1="8" x2="2.5" y2="36" stroke="#FFFDFE"/>
<line id="Line 25" x1="28" y1="2.5" x2="8" y2="2.5" stroke="#FFFDFE"/>
</g>
<g id="Group 25">
<line id="Line 22_2" y1="-3" x2="29.9587" y2="-3" transform="matrix(-0.0106838 0.999943 -0.999941 -0.0108588 216.646 41.2584)" stroke="#3F3F3F" stroke-width="6"/>
<line id="Line 23_2" y1="-3" x2="26.0015" y2="-3" transform="matrix(0.999949 0.0100832 -0.0115055 0.999934 196 71.7177)" stroke="#3F3F3F" stroke-width="6"/>
<line id="Line 24_2" x1="219.5" y1="62.9914" x2="219.875" y2="41.2712" stroke="#CF6161"/>
<line id="Line 25_2" x1="196.021" y1="68.5087" x2="213" y2="68.5" stroke="#FF6C6C"/>
</g>
<line id="line-top" x1="79" y1="7" x2="213" y2="7" stroke="#F74C42" stroke-width="2"/>
<line id="line-bottom" x1="8" y1="65" x2="142" y2="65" stroke="#F74C42" stroke-width="2"/>
</g>
<path id="text-center" d="M59.325 46V26H64.95V27.5H60.975V35.2H64.7V36.675H60.975V46H59.325ZM66.4463 28V26H69.0713V28H66.4463ZM66.9713 46V31H68.6213V46H66.9713ZM71.3855 46V31H73.0355V32.325H73.4105C73.6272 31.8583 73.9022 31.4917 74.2355 31.225C74.5855 30.9583 75.0355 30.825 75.5855 30.825C76.3689 30.825 76.9605 31.0583 77.3605 31.525C77.7605 31.975 77.9605 32.7333 77.9605 33.8V46H76.3105V33.675C76.2939 33.125 76.1855 32.7333 75.9855 32.5C75.7855 32.25 75.4605 32.125 75.0105 32.125C74.5772 32.125 74.1772 32.2583 73.8105 32.525C73.4605 32.7917 73.2022 33.1667 73.0355 33.65V46H71.3855ZM85.2164 26H86.8664V46H85.2164V44.675H84.8914C84.6414 45.1583 84.3497 45.5333 84.0164 45.8C83.6997 46.05 83.2581 46.175 82.6914 46.175C81.8914 46.175 81.2997 45.95 80.9164 45.5C80.5331 45.0333 80.3247 44.2667 80.2914 43.2C80.2581 41.7667 80.2414 40.2417 80.2414 38.625C80.2414 36.9917 80.2581 35.3833 80.2914 33.8C80.3247 32.7333 80.5414 31.975 80.9414 31.525C81.3414 31.0583 81.9331 30.825 82.7164 30.825C83.2997 30.825 83.7497 30.95 84.0664 31.2C84.3831 31.45 84.6664 31.825 84.9164 32.325H85.2164V26ZM83.2414 44.875C84.2247 44.875 84.8831 44.3667 85.2164 43.35V33.65C85.0497 33.1167 84.7914 32.7333 84.4414 32.5C84.1081 32.25 83.7081 32.125 83.2414 32.125C82.8081 32.125 82.4914 32.25 82.2914 32.5C82.0914 32.7333 81.9831 33.125 81.9664 33.675C81.8831 37.125 81.8831 40.3417 81.9664 43.325C81.9831 43.875 82.0831 44.275 82.2664 44.525C82.4664 44.7583 82.7914 44.875 83.2414 44.875ZM97.9283 46.175C96.7617 46.175 95.9367 45.925 95.4533 45.425C94.9867 44.925 94.7283 44.0917 94.6783 42.925C94.645 42.025 94.62 41.0667 94.6033 40.05C94.6033 39.0333 94.6033 38.0167 94.6033 37C94.62 35.9667 94.645 34.9917 94.6783 34.075C94.7283 32.9083 94.9867 32.075 95.4533 31.575C95.9367 31.075 96.7617 30.825 97.9283 30.825C99.095 30.825 99.9117 31.0833 100.378 31.6C100.845 32.1 101.103 32.925 101.153 34.075C101.203 35.425 101.228 36.9 101.228 38.5C101.228 40.0833 101.203 41.5583 101.153 42.925C101.103 44.075 100.845 44.9083 100.378 45.425C99.9117 45.925 99.095 46.175 97.9283 46.175ZM97.9283 44.85C98.4783 44.85 98.87 44.7333 99.1033 44.5C99.3533 44.2667 99.4867 43.8583 99.5033 43.275C99.5367 42.0917 99.5533 41 99.5533 40C99.57 39 99.57 38 99.5533 37C99.5533 36 99.5367 34.9167 99.5033 33.75C99.4867 33.15 99.3617 32.7333 99.1283 32.5C98.895 32.2667 98.495 32.15 97.9283 32.15C97.3617 32.15 96.9533 32.2667 96.7033 32.5C96.47 32.7333 96.345 33.15 96.3283 33.75C96.295 34.9167 96.27 36 96.2533 37C96.2367 38 96.2367 39 96.2533 40C96.27 41 96.295 42.0917 96.3283 43.275C96.345 43.8583 96.47 44.2667 96.7033 44.5C96.9533 44.7333 97.3617 44.85 97.9283 44.85ZM103.881 51V31H105.531V32.325H105.856C106.106 31.825 106.381 31.45 106.681 31.2C106.997 30.95 107.447 30.825 108.031 30.825C108.831 30.825 109.422 31.0583 109.806 31.525C110.189 31.975 110.406 32.7333 110.456 33.8C110.456 34.3667 110.456 35.05 110.456 35.85C110.472 36.6333 110.481 37.4667 110.481 38.35C110.481 39.2167 110.472 40.075 110.456 40.925C110.456 41.7583 110.456 42.5167 110.456 43.2C110.406 44.2667 110.172 45.0333 109.756 45.5C109.356 45.95 108.764 46.175 107.981 46.175C107.464 46.175 107.039 46.0583 106.706 45.825C106.389 45.5917 106.106 45.2083 105.856 44.675H105.531V51H103.881ZM107.406 44.875C107.856 44.875 108.189 44.7583 108.406 44.525C108.639 44.275 108.764 43.875 108.781 43.325C108.831 41.4917 108.856 39.8 108.856 38.25C108.856 36.6833 108.831 35.1583 108.781 33.675C108.764 33.125 108.656 32.7333 108.456 32.5C108.272 32.25 107.956 32.125 107.506 32.125C106.506 32.125 105.847 32.6333 105.531 33.65V43.35C105.714 43.9 105.947 44.2917 106.231 44.525C106.531 44.7583 106.922 44.875 107.406 44.875ZM113.134 51V31H114.784V32.325H115.109C115.359 31.825 115.634 31.45 115.934 31.2C116.25 30.95 116.7 30.825 117.284 30.825C118.084 30.825 118.675 31.0583 119.059 31.525C119.442 31.975 119.659 32.7333 119.709 33.8C119.709 34.3667 119.709 35.05 119.709 35.85C119.725 36.6333 119.734 37.4667 119.734 38.35C119.734 39.2167 119.725 40.075 119.709 40.925C119.709 41.7583 119.709 42.5167 119.709 43.2C119.659 44.2667 119.425 45.0333 119.009 45.5C118.609 45.95 118.017 46.175 117.234 46.175C116.717 46.175 116.292 46.0583 115.959 45.825C115.642 45.5917 115.359 45.2083 115.109 44.675H114.784V51H113.134ZM116.659 44.875C117.109 44.875 117.442 44.7583 117.659 44.525C117.892 44.275 118.017 43.875 118.034 43.325C118.084 41.4917 118.109 39.8 118.109 38.25C118.109 36.6833 118.084 35.1583 118.034 33.675C118.017 33.125 117.909 32.7333 117.709 32.5C117.525 32.25 117.209 32.125 116.759 32.125C115.759 32.125 115.1 32.6333 114.784 33.65V43.35C114.967 43.9 115.2 44.2917 115.484 44.525C115.784 44.7583 116.175 44.875 116.659 44.875ZM125.516 46.175C124.35 46.175 123.525 45.925 123.041 45.425C122.575 44.925 122.316 44.0917 122.266 42.925C122.233 42.025 122.208 41.0667 122.191 40.05C122.191 39.0333 122.191 38.0167 122.191 37C122.208 35.9667 122.233 34.9917 122.266 34.075C122.316 32.9083 122.575 32.075 123.041 31.575C123.525 31.075 124.35 30.825 125.516 30.825C126.683 30.825 127.5 31.0833 127.966 31.6C128.433 32.1 128.691 32.925 128.741 34.075C128.791 35.425 128.816 36.9 128.816 38.5C128.816 40.0833 128.791 41.5583 128.741 42.925C128.691 44.075 128.433 44.9083 127.966 45.425C127.5 45.925 126.683 46.175 125.516 46.175ZM125.516 44.85C126.066 44.85 126.458 44.7333 126.691 44.5C126.941 44.2667 127.075 43.8583 127.091 43.275C127.125 42.0917 127.141 41 127.141 40C127.158 39 127.158 38 127.141 37C127.141 36 127.125 34.9167 127.091 33.75C127.075 33.15 126.95 32.7333 126.716 32.5C126.483 32.2667 126.083 32.15 125.516 32.15C124.95 32.15 124.541 32.2667 124.291 32.5C124.058 32.7333 123.933 33.15 123.916 33.75C123.883 34.9167 123.858 36 123.841 37C123.825 38 123.825 39 123.841 40C123.858 41 123.883 42.0917 123.916 43.275C123.933 43.8583 124.058 44.2667 124.291 44.5C124.541 44.7333 124.95 44.85 125.516 44.85ZM131.2 46V31H132.85V32.325H133.225C133.442 31.8583 133.717 31.4917 134.05 31.225C134.4 30.9583 134.85 30.825 135.4 30.825C136.183 30.825 136.775 31.0583 137.175 31.525C137.575 31.975 137.775 32.7333 137.775 33.8V46H136.125V33.675C136.108 33.125 136 32.7333 135.8 32.5C135.6 32.25 135.275 32.125 134.825 32.125C134.392 32.125 133.992 32.2583 133.625 32.525C133.275 32.7917 133.017 33.1667 132.85 33.65V46H131.2ZM145.106 40.85H146.706C146.723 41.2333 146.731 41.6333 146.731 42.05C146.748 42.45 146.748 42.8167 146.731 43.15C146.681 44.2167 146.423 44.9917 145.956 45.475C145.506 45.9417 144.731 46.175 143.631 46.175C142.498 46.175 141.681 45.9417 141.181 45.475C140.681 44.9917 140.414 44.2167 140.381 43.15C140.348 42.25 140.323 41.2583 140.306 40.175C140.306 39.075 140.306 37.9833 140.306 36.9C140.323 35.8167 140.348 34.8167 140.381 33.9C140.431 32.8 140.706 32.0167 141.206 31.55C141.706 31.0667 142.506 30.825 143.606 30.825C144.673 30.825 145.448 31.0583 145.931 31.525C146.414 31.9917 146.681 32.7667 146.731 33.85C146.748 34.2333 146.756 34.8833 146.756 35.8C146.773 36.7 146.756 37.7167 146.706 38.85H142.006C142.006 39.55 142.006 40.2583 142.006 40.975C142.023 41.675 142.039 42.4417 142.056 43.275C142.056 43.875 142.173 44.2917 142.406 44.525C142.656 44.7417 143.048 44.85 143.581 44.85C144.114 44.85 144.489 44.7417 144.706 44.525C144.939 44.2917 145.073 43.875 145.106 43.275C145.123 42.6583 145.123 41.85 145.106 40.85ZM143.606 32.15C143.056 32.15 142.656 32.275 142.406 32.525C142.173 32.7583 142.056 33.15 142.056 33.7C142.039 34.4333 142.023 35.1083 142.006 35.725C142.006 36.3417 142.006 36.95 142.006 37.55H145.131C145.131 36.6667 145.131 35.8917 145.131 35.225C145.131 34.5417 145.123 34.0333 145.106 33.7C145.073 33.15 144.939 32.7583 144.706 32.525C144.473 32.275 144.106 32.15 143.606 32.15ZM149.047 46V31H150.697V32.325H151.072C151.288 31.8583 151.563 31.4917 151.897 31.225C152.247 30.9583 152.697 30.825 153.247 30.825C154.03 30.825 154.622 31.0583 155.022 31.525C155.422 31.975 155.622 32.7333 155.622 33.8V46H153.972V33.675C153.955 33.125 153.847 32.7333 153.647 32.5C153.447 32.25 153.122 32.125 152.672 32.125C152.238 32.125 151.838 32.2583 151.472 32.525C151.122 32.7917 150.863 33.1667 150.697 33.65V46H149.047ZM161.834 46.175C160.667 46.175 159.867 45.9417 159.434 45.475C159.001 44.9917 158.776 44.2083 158.759 43.125V32.325H157.734V31H158.784V26.75H160.484L160.459 31H162.684V32.325H160.434V43.275C160.434 43.8917 160.517 44.3083 160.684 44.525C160.851 44.7417 161.242 44.85 161.859 44.85C162.092 44.85 162.284 44.85 162.434 44.85C162.584 44.8333 162.751 44.8083 162.934 44.775V46.05C162.617 46.1333 162.251 46.175 161.834 46.175Z" fill="white"/>
</g>
</svg>
