<svg width="18" height="18" viewBox="0 0 18 18" fill="none" xmlns="http://www.w3.org/2000/svg">
<circle cx="9" cy="9" r="8" stroke="#FF0000" stroke-width="2"/>
<path d="M8.776 5.608C8.416 5.608 8.12 5.504 7.888 5.296C7.664 5.08 7.552 4.816 7.552 4.504C7.552 4.184 7.664 3.92 7.888 3.712C8.12 3.496 8.416 3.388 8.776 3.388C9.128 3.388 9.416 3.496 9.64 3.712C9.872 3.92 9.988 4.184 9.988 4.504C9.988 4.816 9.872 5.08 9.64 5.296C9.416 5.504 9.128 5.608 8.776 5.608ZM9.796 6.304V13H7.744V6.304H9.796Z" fill="#FF0000"/>
</svg>
